
        <svg xmlns="http://www.w3.org/2000/svg" xmlns:xlink="http://www.w3.org/1999/xlink" version="1.1" width="3276.02802746125" 
        height="1393.9415386793119" viewBox="0 0 3276.02802746125 1393.9415386793119">
			<rect fill="#ffffff" width="3276.02802746125" height="1393.9415386793119"/>
			<g transform="scale(13.801401373062495) translate(10, 10)">
				<defs id="SvgjsDefs1190"></defs><g id="SvgjsG1191" featureKey="0LeO0L-0" transform="matrix(5.7880847089815415,0,0,5.7880847089815415,-0.00029531720345546,-34.76323700502084)" fill="#11999e"><path d="M0.52734 6.006 l3.9746 0.0000095367 c1.7644 0 2.8874 0.44597 3.3691 1.3379 c0.27344 0.46875 0.41016 1.1067 0.41016 1.9141 l0 0.97656 c0 0.91797 -0.40039 1.6602 -1.2012 2.2266 c0.27344 0.045576 0.61849 0.25391 1.0352 0.625 l0.30273 0 c0.39714 0.40364 0.6543 0.79427 0.77148 1.1719 c0.032549 0.13021 0.048828 0.20182 0.048828 0.21483 l0.38086 0 l0 0.23438 l-1.2695 0 l0 -0.23438 l-2.6074 0 l0 -0.74219 l-2.5586 0 l0 4.0723 l1.6016 0 l0 -0.29297 l0.95703 0 l0 -2.8027 l2.6074 0 l0 2.4707 l0.29297 0 l0 1.5527 l-0.86914 0 l0 0.36133 l0.86914 0 l0 0.64453 l-3.3105 0 l0 0.26367 l-3.6133 0 l0 -0.26367 l-0.78125 0 l0 -2.1484 l1.0742 0 l0 -0.57617 l-1.0742 0 c-0.019531 -1.0938 -0.029297 -1.9075 -0.029297 -2.4414 l0 -1.0352 l-0.9082 0 l0 -0.26367 l0.9082 0 l0 -0.54688 l-0.42969 0 l0 -6.6699 c0.0065136 -0.032549 0.022793 -0.048828 0.048838 -0.048828 z M3.2324 8.369 l-0.0000095367 3.4668 l0.5957 0 c0.70313 0 1.1653 -0.11719 1.3867 -0.35156 c0.22136 -0.1888 0.33203 -0.69986 0.33203 -1.5332 l0 -0.048828 c0 -0.71614 -0.11067 -1.1458 -0.33203 -1.2891 c-0.14974 -0.16276 -0.6608 -0.24414 -1.5332 -0.24414 l-0.44922 0 z M0.93748 13.2715 l0 0.26367 l1.2891 0 l0 -0.26367 l-1.2891 0 z M0.41014 13.584 l0.47852 -0.0000095367 l0 0.097656 c0 0.032549 -0.016279 0.048828 -0.048828 0.048828 l-0.29297 0 l0 0.097656 l0.26367 0 c0.032549 0.0065136 0.048828 0.022793 0.048828 0.048838 l0 0.048828 c0 0.032549 -0.016279 0.048828 -0.048828 0.048828 l-0.26367 0 l0 0.11719 l0.3418 0 l0 0.097656 c0 0.026045 -0.016279 0.039063 -0.048828 0.039063 l-0.42969 0 l0 -0.64453 z M4.4238 14.4727 l1.3184 0 l0 0.23438 l-1.3184 0 l0 -0.23438 z M8.7305 14.7559 l0.078106 -0.0000095367 c0.032549 0.0065136 0.048828 0.022793 0.048828 0.048838 l0 0.41016 c-0.026045 0.14323 -0.097656 0.21484 -0.21484 0.21484 c-0.14974 -0.026045 -0.22461 -0.097656 -0.22461 -0.21484 l0 -0.029297 c0.0065136 -0.026045 0.022793 -0.039063 0.048838 -0.039063 l0.048828 0 c0.032549 0 0.058594 0.045576 0.078125 0.13672 l0.087891 0 l0 -0.47852 c0.0065136 -0.032549 0.022793 -0.048828 0.048838 -0.048828 z M8.5156 15.5957 l0.1953 -0.0000095367 c0.22136 0 0.33203 0.12044 0.33203 0.36133 c0 0.16276 -0.10417 0.25717 -0.3125 0.28321 l-0.26367 0 l0 -0.5957 c0.0065136 -0.032549 0.022793 -0.048828 0.048838 -0.048828 z M8.6426 15.7422 l0 0.36133 l0.087891 0 c0.097656 0 0.14648 -0.048828 0.14648 -0.14648 l0 -0.048828 c0 -0.11067 -0.055342 -0.16602 -0.16602 -0.16602 l-0.068359 0 z M8.5156 16.4355 l0.36132 -0.0000095367 c0.032549 0.0065136 0.048828 0.022793 0.048828 0.048838 l0 0.097656 l-0.2832 0 l0 0.11719 l0.23438 0 l0 0.11719 l-0.23438 0 l0 0.21484 c0 0.032549 -0.016279 0.048828 -0.048828 0.048828 l-0.12695 0 l0 -0.5957 c0.0065136 -0.032549 0.022793 -0.048828 0.048838 -0.048828 z M5.1659 16.8164 l0.50781 0 l0 0.11719 l-0.3125 0.39063 l0.33203 0 l0 0.087891 c0 0.032549 -0.016279 0.048828 -0.048828 0.048828 l-0.44922 0 c-0.032549 0 -0.048828 -0.016279 -0.048828 -0.048828 l0 -0.068359 l0.3125 -0.38086 l-0.24414 0 c-0.032549 0 -0.048828 -0.016279 -0.048828 -0.048828 l0 -0.097656 z M3.2519 17.2266 l0.029287 0.0000095367 c0.29948 0.091143 0.44922 0.15299 0.44922 0.18554 l0 0.048828 c-0.032549 0.045576 -0.18229 0.11719 -0.44921 0.21484 l-0.029297 -0.048828 l0 -0.019531 c0 -0.045576 0.097656 -0.094404 0.29297 -0.14648 c0 -0.032549 -0.097656 -0.078125 -0.29297 -0.13672 l0 -0.097656 z"></path></g><g id="SvgjsG1192" featureKey="pulpyG-0" transform="matrix(2.24365306857626,0,0,2.24365306857626,79.65380944268283,11.659912402259183)" fill="#40514e"><path d="M3.48 8.04 l0.000019531 3.8 l1.36 0 c0.10666 0 0.19332 -0.03 0.25998 -0.09 s0.1 -0.15666 0.1 -0.29 l0 -3.14 c0 -0.18666 -0.08666 -0.28 -0.26 -0.28 l-1.46 0 z M5.24 14.46 c0 -0.16 -0.04 -0.27002 -0.12 -0.33002 s-0.18666 -0.09 -0.32 -0.09 l-1.32 0 l0 3.42 l1.46 0 c0.12 0 0.2 -0.02334 0.24 -0.07 s0.06 -0.12332 0.06 -0.22998 l0 -2.7 z M7.98 11.24 c0 0.36 -0.07 0.67 -0.21 0.93 s-0.40334 0.44334 -0.79 0.55 c0.4 0.02666 0.69 0.16666 0.87 0.42 s0.27 0.54 0.27 0.86 l0 3.76 c0 0.8 -0.16666 1.3733 -0.5 1.72 s-0.92 0.52 -1.76 0.52 l-5.26 0 l0 -14.5 l5.66 0 c0.57334 0 1.0033 0.16 1.29 0.48 s0.43 0.74666 0.43 1.28 l0 3.98 z M11.82 5.5 l5.64 0 l0.5 2.7 l-3.16 0 l0 3.44 l2.4 0 l0 2.5 l-2.4 0 l0 5.86 l-2.98 0 l0 -14.5 z M22.000000000000004 8.04 c-0.17334 0 -0.26 0.09334 -0.26 0.28 l0 8.84 c0 0.10666 0.01666 0.18332 0.05 0.22998 s0.11 0.07 0.23 0.07 l1.1 0 c0.12 0 0.19666 -0.02334 0.23 -0.07 s0.05 -0.12332 0.05 -0.22998 l0 -8.84 c0 -0.18666 -0.08666 -0.28 -0.26 -0.28 l-1.14 0 z M26.340000000000003 17.94 c0 0.28 -0.03334 0.54334 -0.1 0.79 s-0.18 0.46332 -0.34 0.64998 s-0.37334 0.33666 -0.64 0.45 s-0.6 0.17 -1 0.17 l-3.36 0 c-0.4 0 -0.73334 -0.05666 -1 -0.17 s-0.48 -0.26334 -0.64 -0.45 s-0.27334 -0.40332 -0.34 -0.64998 s-0.1 -0.51 -0.1 -0.79 l0 -10.56 c0 -0.57334 0.15666 -1.03 0.47 -1.37 s0.81 -0.51 1.49 -0.51 l3.6 0 c0.68 0 1.1767 0.17 1.49 0.51 s0.47 0.79666 0.47 1.37 l0 10.56 z M30.440000000000005 8.04 l0 5 l1.42 0 c0.18666 0 0.28 -0.1 0.28 -0.3 l0 -4.4 c0 -0.2 -0.09334 -0.3 -0.28 -0.3 l-1.42 0 z M35.00000000000001 14.1 c0 0.32 -0.11 0.61334 -0.33 0.88 s-0.54334 0.4 -0.97 0.4 l1.52 4.62 l-3 0 l-1.4 -4.62 l-0.38 0 l0 4.62 l-2.9 0 l0 -14.5 l5.5 0 c0.68 0 1.1767 0.17 1.49 0.51 s0.47 0.79666 0.47 1.37 l0 6.72 z M39.06000000000001 13.16 l0 6.84 l-2.82 0 l0 -14.5 l3.06 0 l1.58 6.12 l1.58 -6.12 l3.08 0 l0 14.5 l-2.82 0 l0 -6.84 l-1.84 5.8 z M49.52000000000001 18.2 l-0.26 1.8 l-2.92 0 l2.62 -14.5 l3.1 0 l2.62 14.5 l-2.92 0 l-0.26 -1.8 l-1.98 0 z M49.84000000000001 15.9 l1.34 0 l-0.66 -5.14 z M55.48000000000001 5.5 l2.98 0 l0 11.8 l2.92 0 l-0.5 2.7 l-5.4 0 l0 -14.5 z"></path></g>
			</g>
		</svg>
	